<svg width="60" height="60" viewBox="0 0 60 60" fill="none" xmlns="http://www.w3.org/2000/svg">
<circle cx="30" cy="30" r="30" fill="#02447C"/>
<path fill-rule="evenodd" clip-rule="evenodd" d="M15.8823 29.8524C15.8789 29.5112 15.9769 29.183 16.1548 28.9399C16.3328 28.6968 16.576 28.5588 16.8312 28.5562L39.518 28.3257L33.3817 20.2932C33.1986 20.0535 33.0938 19.7269 33.0903 19.3853C33.0869 19.0437 33.185 18.715 33.3632 18.4716C33.5413 18.2283 33.7849 18.0901 34.0403 18.0875C34.2958 18.0849 34.5421 18.2181 34.7252 18.4578L42.5248 28.6708C42.6155 28.7894 42.6881 28.9306 42.7381 29.0864C42.7882 29.2422 42.8149 29.4095 42.8166 29.5787C42.8183 29.7479 42.7951 29.9157 42.7482 30.0725C42.7012 30.2293 42.6316 30.372 42.5433 30.4924L34.9528 40.8618C34.7747 41.1052 34.5311 41.2434 34.2756 41.2459C34.0202 41.2485 33.7739 41.1153 33.5908 40.8756C33.4077 40.6359 33.3029 40.3093 33.2995 39.9677C33.296 39.6261 33.3941 39.2975 33.5723 39.0541L39.5441 30.8985L16.8573 31.129C16.6022 31.1316 16.3562 30.9986 16.1733 30.7592C15.9905 30.5197 15.8858 30.1936 15.8823 29.8524Z" fill="white"/>
</svg>
