<svg width="96" height="15" viewBox="0 0 96 15" fill="none" xmlns="http://www.w3.org/2000/svg">
<path d="M91.7156 11.1677C91.0156 11.1677 90.3949 11.0184 89.8536 10.7197C89.3123 10.421 88.8876 10.001 88.5796 9.4597C88.2716 8.91836 88.1176 8.29303 88.1176 7.5837C88.1176 6.86503 88.267 6.2257 88.5656 5.6657C88.8736 5.1057 89.2936 4.6717 89.8256 4.3637C90.3669 4.04636 91.0016 3.8877 91.7296 3.8877C92.4109 3.8877 93.013 4.03703 93.5356 4.3357C94.0583 4.63436 94.4643 5.04503 94.7536 5.5677C95.0523 6.08103 95.2016 6.65503 95.2016 7.2897C95.2016 7.39236 95.1969 7.4997 95.1876 7.6117C95.1876 7.7237 95.1829 7.84036 95.1736 7.9617H89.8956C89.9329 8.50303 90.1196 8.9277 90.4556 9.2357C90.801 9.5437 91.2163 9.6977 91.7016 9.6977C92.0656 9.6977 92.369 9.61836 92.6116 9.4597C92.8636 9.2917 93.0503 9.07703 93.1716 8.8157H94.9916C94.8609 9.25436 94.6416 9.6557 94.3336 10.0197C94.035 10.3744 93.6616 10.6544 93.2136 10.8597C92.7749 11.065 92.2756 11.1677 91.7156 11.1677ZM91.7296 5.3437C91.2909 5.3437 90.9036 5.4697 90.5676 5.7217C90.2316 5.96436 90.0169 6.3377 89.9236 6.8417H93.3816C93.3536 6.38436 93.1856 6.02036 92.8776 5.7497C92.5696 5.47903 92.1869 5.3437 91.7296 5.3437Z" fill="#031B4A"/>
<path d="M81.1944 11.0002V9.55815L84.7364 5.54015H81.2364V4.05615H86.7804V5.49815L83.1824 9.51615H86.8504V11.0002H81.1944Z" fill="#031B4A"/>
<path d="M78.876 2.97792C78.5493 2.97792 78.2787 2.87992 78.064 2.68392C77.8587 2.48792 77.756 2.24059 77.756 1.94192C77.756 1.64326 77.8587 1.40059 78.064 1.21392C78.2787 1.01792 78.5493 0.919922 78.876 0.919922C79.2027 0.919922 79.4687 1.01792 79.674 1.21392C79.8887 1.40059 79.996 1.64326 79.996 1.94192C79.996 2.24059 79.8887 2.48792 79.674 2.68392C79.4687 2.87992 79.2027 2.97792 78.876 2.97792ZM77.98 10.9999V4.05592H79.772V10.9999H77.98Z" fill="#031B4A"/>
<path d="M73.4245 11.1677C72.8085 11.1677 72.2672 11.0697 71.8005 10.8737C71.3338 10.6684 70.9605 10.3884 70.6805 10.0337C70.4005 9.67903 70.2325 9.26836 70.1765 8.8017H71.9825C72.0385 9.07236 72.1879 9.3057 72.4305 9.5017C72.6825 9.68836 73.0045 9.7817 73.3965 9.7817C73.7885 9.7817 74.0732 9.70236 74.2505 9.5437C74.4372 9.38503 74.5305 9.20303 74.5305 8.9977C74.5305 8.69903 74.3999 8.49836 74.1385 8.3957C73.8772 8.2837 73.5132 8.17636 73.0465 8.0737C72.7478 8.00836 72.4445 7.92903 72.1365 7.8357C71.8285 7.74236 71.5438 7.6257 71.2825 7.4857C71.0305 7.33636 70.8252 7.1497 70.6665 6.9257C70.5079 6.69236 70.4285 6.4077 70.4285 6.0717C70.4285 5.4557 70.6712 4.9377 71.1565 4.5177C71.6512 4.0977 72.3418 3.8877 73.2285 3.8877C74.0498 3.8877 74.7032 4.07903 75.1885 4.4617C75.6832 4.84436 75.9772 5.3717 76.0705 6.0437H74.3765C74.2739 5.53036 73.8865 5.2737 73.2145 5.2737C72.8785 5.2737 72.6172 5.33903 72.4305 5.4697C72.2532 5.60036 72.1645 5.7637 72.1645 5.9597C72.1645 6.16503 72.2999 6.32836 72.5705 6.4497C72.8412 6.57103 73.2005 6.68303 73.6485 6.7857C74.1338 6.8977 74.5772 7.0237 74.9785 7.1637C75.3892 7.29436 75.7159 7.49503 75.9585 7.7657C76.2012 8.02703 76.3225 8.40503 76.3225 8.8997C76.3319 9.32903 76.2199 9.71636 75.9865 10.0617C75.7532 10.407 75.4172 10.6777 74.9785 10.8737C74.5398 11.0697 74.0218 11.1677 73.4245 11.1677Z" fill="#031B4A"/>
<path d="M62.2254 11.1677C61.5254 11.1677 60.9047 11.0184 60.3634 10.7197C59.822 10.421 59.3974 10.001 59.0894 9.4597C58.7814 8.91836 58.6274 8.29303 58.6274 7.5837C58.6274 6.86503 58.7767 6.2257 59.0754 5.6657C59.3834 5.1057 59.8034 4.6717 60.3354 4.3637C60.8767 4.04636 61.5114 3.8877 62.2394 3.8877C62.9207 3.8877 63.5227 4.03703 64.0454 4.3357C64.568 4.63436 64.974 5.04503 65.2634 5.5677C65.562 6.08103 65.7114 6.65503 65.7114 7.2897C65.7114 7.39236 65.7067 7.4997 65.6974 7.6117C65.6974 7.7237 65.6927 7.84036 65.6834 7.9617H60.4054C60.4427 8.50303 60.6294 8.9277 60.9654 9.2357C61.3107 9.5437 61.726 9.6977 62.2114 9.6977C62.5754 9.6977 62.8787 9.61836 63.1214 9.4597C63.3734 9.2917 63.56 9.07703 63.6814 8.8157H65.5014C65.3707 9.25436 65.1514 9.6557 64.8434 10.0197C64.5447 10.3744 64.1714 10.6544 63.7234 10.8597C63.2847 11.065 62.7854 11.1677 62.2254 11.1677ZM62.2394 5.3437C61.8007 5.3437 61.4134 5.4697 61.0774 5.7217C60.7414 5.96436 60.5267 6.3377 60.4334 6.8417H63.8914C63.8634 6.38436 63.6954 6.02036 63.3874 5.7497C63.0794 5.47903 62.6967 5.3437 62.2394 5.3437Z" fill="#031B4A"/>
<path d="M53.8582 11.1677C53.1582 11.1677 52.5375 11.0184 51.9962 10.7197C51.4549 10.421 51.0302 10.001 50.7222 9.4597C50.4142 8.91836 50.2602 8.29303 50.2602 7.5837C50.2602 6.86503 50.4095 6.2257 50.7082 5.6657C51.0162 5.1057 51.4362 4.6717 51.9682 4.3637C52.5095 4.04636 53.1442 3.8877 53.8722 3.8877C54.5535 3.8877 55.1555 4.03703 55.6782 4.3357C56.2009 4.63436 56.6069 5.04503 56.8962 5.5677C57.1949 6.08103 57.3442 6.65503 57.3442 7.2897C57.3442 7.39236 57.3395 7.4997 57.3302 7.6117C57.3302 7.7237 57.3255 7.84036 57.3162 7.9617H52.0382C52.0755 8.50303 52.2622 8.9277 52.5982 9.2357C52.9435 9.5437 53.3589 9.6977 53.8442 9.6977C54.2082 9.6977 54.5115 9.61836 54.7542 9.4597C55.0062 9.2917 55.1929 9.07703 55.3142 8.8157H57.1342C57.0035 9.25436 56.7842 9.6557 56.4762 10.0197C56.1775 10.3744 55.8042 10.6544 55.3562 10.8597C54.9175 11.065 54.4182 11.1677 53.8582 11.1677ZM53.8722 5.3437C53.4335 5.3437 53.0462 5.4697 52.7102 5.7217C52.3742 5.96436 52.1595 6.3377 52.0662 6.8417H55.5242C55.4962 6.38436 55.3282 6.02036 55.0202 5.7497C54.7122 5.47903 54.3295 5.3437 53.8722 5.3437Z" fill="#031B4A"/>
<path d="M43.6003 14.0802L45.2103 10.5382H44.7903L42.0883 4.05615H44.0343L45.9803 8.94215L48.0103 4.05615H49.9143L45.5043 14.0802H43.6003Z" fill="#031B4A"/>
<path d="M38.2029 11.1677C37.5309 11.1677 36.9242 11.0137 36.3829 10.7057C35.8509 10.3977 35.4262 9.97303 35.1089 9.4317C34.8009 8.88103 34.6469 8.24636 34.6469 7.5277C34.6469 6.80903 34.8056 6.17903 35.1229 5.6377C35.4402 5.08703 35.8649 4.6577 36.3969 4.3497C36.9382 4.0417 37.5449 3.8877 38.2169 3.8877C38.8796 3.8877 39.4769 4.0417 40.0089 4.3497C40.5502 4.6577 40.9749 5.08703 41.2829 5.6377C41.6002 6.17903 41.7589 6.80903 41.7589 7.5277C41.7589 8.24636 41.6002 8.88103 41.2829 9.4317C40.9749 9.97303 40.5502 10.3977 40.0089 10.7057C39.4676 11.0137 38.8656 11.1677 38.2029 11.1677ZM38.2029 9.6137C38.6696 9.6137 39.0756 9.44103 39.4209 9.0957C39.7662 8.74103 39.9389 8.21836 39.9389 7.5277C39.9389 6.83703 39.7662 6.31903 39.4209 5.9737C39.0756 5.61903 38.6742 5.4417 38.2169 5.4417C37.7409 5.4417 37.3302 5.61903 36.9849 5.9737C36.6489 6.31903 36.4809 6.83703 36.4809 7.5277C36.4809 8.21836 36.6489 8.74103 36.9849 9.0957C37.3302 9.44103 37.7362 9.6137 38.2029 9.6137Z" fill="#031B4A"/>
<path d="M31.2479 10.9999V0.919922H33.0399V10.9999H31.2479Z" fill="#031B4A"/>
<path d="M22.1151 14.0797V4.0557H23.7111L23.9071 5.0497C24.1311 4.7417 24.4251 4.47103 24.7891 4.2377C25.1624 4.00436 25.6431 3.8877 26.2311 3.8877C26.8844 3.8877 27.4677 4.04636 27.9811 4.3637C28.4944 4.68103 28.9004 5.11503 29.1991 5.6657C29.4977 6.21636 29.6471 6.8417 29.6471 7.5417C29.6471 8.2417 29.4977 8.86703 29.1991 9.4177C28.9004 9.95903 28.4944 10.3884 27.9811 10.7057C27.4677 11.0137 26.8844 11.1677 26.2311 11.1677C25.7084 11.1677 25.2511 11.0697 24.8591 10.8737C24.4671 10.6777 24.1497 10.4024 23.9071 10.0477V14.0797H22.1151ZM25.8531 9.5997C26.4224 9.5997 26.8937 9.40836 27.2671 9.0257C27.6404 8.64303 27.8271 8.14836 27.8271 7.5417C27.8271 6.93503 27.6404 6.4357 27.2671 6.0437C26.8937 5.6517 26.4224 5.4557 25.8531 5.4557C25.2744 5.4557 24.7984 5.6517 24.4251 6.0437C24.0611 6.42636 23.8791 6.92103 23.8791 7.5277C23.8791 8.13436 24.0611 8.6337 24.4251 9.0257C24.7984 9.40836 25.2744 9.5997 25.8531 9.5997Z" fill="#031B4A"/>
<path d="M9.00372 10.9997V4.0557H10.5857L10.7397 4.9937C10.9637 4.6577 11.2577 4.3917 11.6217 4.1957C11.9951 3.99036 12.4244 3.8877 12.9097 3.8877C13.9831 3.8877 14.7437 4.30303 15.1917 5.1337C15.4437 4.75103 15.7797 4.4477 16.1997 4.2237C16.6291 3.9997 17.0957 3.8877 17.5997 3.8877C18.5051 3.8877 19.2004 4.15836 19.6857 4.6997C20.1711 5.24103 20.4137 6.03436 20.4137 7.0797V10.9997H18.6217V7.2477C18.6217 6.65036 18.5051 6.19303 18.2717 5.8757C18.0477 5.55836 17.6977 5.3997 17.2217 5.3997C16.7364 5.3997 16.3444 5.57703 16.0457 5.9317C15.7564 6.28636 15.6117 6.78103 15.6117 7.4157V10.9997H13.8197V7.2477C13.8197 6.65036 13.7031 6.19303 13.4697 5.8757C13.2364 5.55836 12.8771 5.3997 12.3917 5.3997C11.9157 5.3997 11.5284 5.57703 11.2297 5.9317C10.9404 6.28636 10.7957 6.78103 10.7957 7.4157V10.9997H9.00372Z" fill="#031B4A"/>
<path d="M0.951965 10.9997V1.19971H7.34997V2.64171H2.74397V5.32971H6.92997V6.72971H2.74397V9.55771H7.34997V10.9997H0.951965Z" fill="#031B4A"/>
</svg>
