<svg width="24" height="26" viewBox="0 0 24 26" fill="none" xmlns="http://www.w3.org/2000/svg">
<path d="M21.25 13.25C21.25 18.5809 17.084 22.8571 12 22.8571C6.91596 22.8571 2.75 18.5809 2.75 13.25C2.75 7.91906 6.91596 3.64282 12 3.64282C17.084 3.64282 21.25 7.91906 21.25 13.25Z" stroke="#FF9228" stroke-width="1.5"/>
<path d="M15.25 10.5423C15.25 12.4411 13.7703 13.9351 12 13.9351C10.2297 13.9351 8.75 12.4411 8.75 10.5423C8.75 8.64342 10.2297 7.14941 12 7.14941C13.7703 7.14941 15.25 8.64342 15.25 10.5423Z" stroke="#FF9228" stroke-width="1.5"/>
<path d="M18.6154 19.9822C17.1754 17.794 14.7498 16.3572 12.0001 16.3572C9.25041 16.3572 6.82474 17.794 5.38477 19.9822" stroke="#FF9228" stroke-width="1.5"/>
</svg>
