<svg width="125" height="109" viewBox="0 0 125 109" fill="none" xmlns="http://www.w3.org/2000/svg">
<g clip-path="url(#clip0_1_236)">
<path d="M6.03153 37.144L0.00433913 33.7616C-0.0769611 30.1429 0.729568 26.559 2.35389 23.3213C3.74349 29.6053 11.0565 32.595 14.4306 38.0818C15.4698 39.8011 16.1073 41.7313 16.296 43.7295C16.4847 45.7277 16.2197 47.7425 15.5205 49.6248L15.9169 54.497C12.8019 53.5674 9.92613 51.9759 7.4878 49.8323C5.04948 47.6888 3.10655 45.044 1.79289 42.0802C1.07246 40.4103 0.565973 38.6566 0.285369 36.8605C3.0955 37.1585 6.03153 37.144 6.03153 37.144Z" fill="#F2F2F2"/>
<path d="M114.38 98.6783L114.565 94.5379C116.492 93.5118 118.641 92.9698 120.825 92.959C117.819 95.4081 118.194 100.129 116.156 103.423C115.512 104.445 114.646 105.31 113.621 105.954C112.596 106.597 111.439 107.002 110.236 107.14L107.72 108.675C107.375 106.757 107.451 104.788 107.943 102.902C108.435 101.017 109.332 99.2598 110.571 97.7528C111.275 96.9142 112.082 96.1673 112.973 95.5296C113.575 97.1127 114.38 98.6783 114.38 98.6783Z" fill="#E6E6E6"/>
<path d="M107.897 106.544L105.619 106.544L104.535 97.7881L107.898 97.7883L107.897 106.544Z" fill="#FFB6B6"/>
<path d="M108.478 108.744L101.132 108.744V108.651C101.132 107.896 101.434 107.171 101.97 106.637C102.506 106.103 103.233 105.802 103.992 105.802H103.992L105.334 104.788L107.837 105.803L108.478 105.803L108.478 108.744Z" fill="#2F2E41"/>
<path d="M97.3129 106.544L95.0347 106.544L93.9509 97.7881L97.3134 97.7883L97.3129 106.544Z" fill="#FFB6B6"/>
<path d="M97.894 108.744L90.5479 108.744V108.651C90.548 107.896 90.8492 107.171 91.3854 106.637C91.9216 106.103 92.6489 105.802 93.4072 105.802H93.4074L94.7492 104.788L97.2529 105.803L97.8941 105.803L97.894 108.744Z" fill="#2F2E41"/>
<path d="M96.3268 58.6768L111.146 59.0459C113.96 60.5689 114.003 63.8654 113.081 67.7792C113.081 67.7792 113.392 70.1055 112.769 70.7258C112.147 71.3462 111.835 71.3462 112.147 72.4317C112.458 73.5173 110.813 75.2904 111.013 75.4895C111.213 75.6885 111.68 76.7741 111.68 76.7741L110.123 85.6139C110.123 85.6139 109.034 100.967 108.722 101.277C108.411 101.588 108.1 101.277 108.411 102.053C108.722 102.828 109.034 102.518 108.722 102.828C108.447 103.124 108.187 103.435 107.944 103.759H104.181C104.181 103.759 103.897 102.208 103.897 102.053C103.897 101.898 103.586 100.967 103.586 100.812C103.586 100.657 103.861 100.383 103.861 100.383C103.956 100.068 104.02 99.7439 104.053 99.4164C104.053 99.1062 104.987 87.1647 104.987 87.1647L103.119 71.6563L98.6049 86.8546C98.6049 86.8546 98.6049 100.192 98.2936 100.502C97.9823 100.812 97.9823 100.657 98.138 101.277C98.2936 101.898 98.9162 101.743 98.4493 102.208C97.9823 102.673 97.8266 101.898 97.9823 102.673L98.138 103.449L93.4683 103.515C93.4683 103.515 92.8457 102.208 93.1571 101.743C93.4684 101.277 93.4497 101.404 93.0699 100.643C92.6901 99.8816 92.5344 99.7265 92.6901 99.5714C92.8457 99.4164 92.8457 98.5915 92.8457 98.5915L93.624 83.7529C93.624 83.7529 93.7797 68.0894 93.7797 67.6241C93.7914 67.3847 93.7471 67.1459 93.6504 66.9265V66.2949L94.2466 64.0572L96.3268 58.6768Z" fill="#69687F"/>
<path d="M105.229 27.9757C107.772 27.9757 109.833 25.9218 109.833 23.3882C109.833 20.8547 107.772 18.8008 105.229 18.8008C102.686 18.8008 100.624 20.8547 100.624 23.3882C100.624 25.9218 102.686 27.9757 105.229 27.9757Z" fill="#FFB6B6"/>
<path d="M102.927 31.008C101.935 31.5955 101.341 32.6751 101.001 33.7736C100.37 35.8074 99.9904 37.9102 99.8702 40.0355L99.5104 46.3982L95.0547 59.9462C98.9163 63.2018 113.432 60.6861 113.432 60.6861C113.432 60.6861 113.877 60.5381 113.432 60.0942C112.986 59.6502 112.552 60.0436 112.998 59.5996C113.444 59.1557 113.136 59.6502 112.988 59.2063C112.839 58.7623 112.988 59.0583 113.136 58.9103C113.285 58.7623 111.987 57.4305 111.987 57.4305L113.175 49.6538L114.66 33.9676C112.878 31.7479 109.293 30.4393 109.293 30.4393L108.367 28.7783L103.736 29.1474L102.927 31.008Z" fill="#02457A"/>
<path d="M102.295 20.6958C102.473 20.6972 102.65 20.7203 102.823 20.7648C103.163 20.8462 103.508 20.9039 103.856 20.9375C104.922 21.0374 105.924 21.4903 106.701 22.2239C107.478 22.9574 107.986 23.9294 108.144 24.9844C108.412 24.752 109.021 24.3245 109.52 24.7218C109.527 24.7281 109.532 24.7313 109.549 24.7231C109.881 24.5664 110.469 22.6385 110.487 20.941C110.496 20.04 110.354 18.8895 109.622 18.5251L109.584 18.5059L109.574 18.4642C109.525 18.2615 108.979 17.9156 108.03 17.6463C106.306 17.157 103.736 16.2038 102.288 17.6066C102.179 18.0795 101.822 19.0916 101.462 19.2063C101.064 19.3333 100.72 19.4429 100.665 19.93C100.62 20.6233 100.623 21.3189 100.675 22.0117C100.81 21.5878 101.075 21.2167 101.433 20.9508C101.688 20.7801 101.988 20.6911 102.295 20.6958Z" fill="#2F2E41"/>
<path d="M93.7251 46.044L101.246 41.2448L97.4581 36.2275L93.7175 40.812L82.0627 41.5242C81.7562 41.2223 81.3681 41.0157 80.9458 40.9298C80.5235 40.8438 80.0852 40.8822 79.6844 41.0401C79.2835 41.198 78.9375 41.4688 78.6884 41.8193C78.4394 42.1698 78.298 42.5849 78.2817 43.0141C78.2653 43.4432 78.3746 43.8678 78.5963 44.2362C78.8179 44.6045 79.1424 44.9006 79.53 45.0884C79.9177 45.2762 80.3518 45.3475 80.7794 45.2937C81.2071 45.2399 81.6098 45.0633 81.9384 44.7854L93.7251 46.044Z" fill="#FFB6B6"/>
<path d="M108.227 34.5457C108.663 37.1779 100.42 42.2041 100.42 42.2041C100.42 41.5863 95.4998 46.2502 95.2777 45.7379C94.6466 44.2816 94.2028 40.8325 93.3208 40.2804C92.8165 39.9647 96.3586 36.9988 96.3586 36.9988C96.3586 36.9988 98.2127 35.1378 100.646 32.7903C101.321 32.114 102.158 31.6189 103.077 31.3512C103.996 31.0835 104.968 31.0518 105.903 31.2592C105.903 31.2592 107.79 31.9136 108.227 34.5457Z" fill="#02457A"/>
<path d="M123.729 47.3034L118.754 39.9131L113.8 43.7928L118.479 47.4218L119.441 59.0163C119.144 59.328 118.945 59.719 118.868 60.1415C118.791 60.564 118.838 60.9998 119.005 61.3957C119.172 61.7916 119.451 62.1306 119.808 62.3713C120.165 62.612 120.585 62.7439 121.016 62.7512C121.447 62.7584 121.871 62.6405 122.235 62.4119C122.6 62.1833 122.891 61.8538 123.071 61.4637C123.251 61.0736 123.313 60.6396 123.25 60.2148C123.187 59.79 123.002 59.3926 122.716 59.0711L123.729 47.3034Z" fill="#FFB6B6"/>
<path d="M111.885 33.1015C114.517 32.6109 119.735 40.7159 119.735 40.7159C119.115 40.7291 123.899 45.5313 123.389 45.7634C121.942 46.423 118.49 46.9381 117.955 47.8283C117.649 48.3374 114.598 44.8718 114.598 44.8718C114.598 44.8718 112.691 43.0643 110.284 40.6903C109.591 40.0317 109.076 39.2091 108.788 38.2992C108.5 37.3892 108.448 36.4213 108.636 35.4858C108.636 35.4858 109.253 33.592 111.885 33.1015Z" fill="#02457A"/>
<path d="M125 108.78C125 108.809 124.994 108.838 124.983 108.864C124.972 108.891 124.956 108.915 124.936 108.936C124.915 108.956 124.891 108.972 124.864 108.983C124.837 108.994 124.809 109 124.78 109H72.86C72.8015 109 72.7455 108.977 72.7041 108.935C72.6628 108.894 72.6396 108.838 72.6396 108.78C72.6396 108.722 72.6628 108.666 72.7041 108.625C72.7455 108.584 72.8015 108.561 72.86 108.561H124.78C124.809 108.56 124.837 108.566 124.864 108.577C124.891 108.588 124.915 108.604 124.936 108.625C124.956 108.645 124.972 108.669 124.983 108.696C124.994 108.723 125 108.751 125 108.78Z" fill="#130160"/>
<path d="M76.9025 42.2256H13.8911C12.9067 42.2267 11.9628 42.6168 11.2667 43.3104C10.5706 44.004 10.179 44.9443 10.1779 45.9252V85.0125C10.1791 85.9934 10.5706 86.9337 11.2667 87.6273C11.9628 88.3209 12.9067 88.711 13.8911 88.7121H76.9025C77.8869 88.711 78.8308 88.3209 79.5269 87.6273C80.223 86.9338 80.6146 85.9934 80.6157 85.0125V45.9252C80.6146 44.9443 80.2231 44.004 79.5269 43.3104C78.8308 42.6168 77.887 42.2267 76.9025 42.2256Z" fill="#FCA34D"/>
<path d="M76.9025 42.2256H13.8911C12.9067 42.2267 11.9628 42.6168 11.2667 43.3104C10.5706 44.004 10.179 44.9443 10.1779 45.9252V85.0125C10.1791 85.9934 10.5706 86.9337 11.2667 87.6273C11.9628 88.3209 12.9067 88.711 13.8911 88.7121H76.9025C77.8869 88.711 78.8308 88.3209 79.5269 87.6273C80.223 86.9338 80.6146 85.9934 80.6157 85.0125V45.9252C80.6146 44.9443 80.2231 44.004 79.5269 43.3104C78.8308 42.6168 77.887 42.2267 76.9025 42.2256ZM78.1211 70.3025C78.106 74.2818 76.5262 78.0967 73.7206 80.9289C70.915 83.761 67.107 85.3848 63.1136 85.4517C56.72 85.5347 66.6512 85.567 58.94 85.567C41.307 85.567 22.9206 85.3991 16.0604 85.2903C15.1578 85.2717 14.2983 84.9023 13.6653 84.261C13.0323 83.6197 12.676 82.7572 12.6726 81.8577V45.9281C12.6729 45.606 12.8013 45.2972 13.0296 45.0691C13.2579 44.8411 13.5676 44.7124 13.8909 44.7113H76.9C77.2232 44.7116 77.5331 44.8395 77.7619 45.0669C77.9908 45.2944 78.1199 45.6028 78.1211 45.9248V70.3025Z" fill="#02457A"/>
<path d="M69.1459 19.7178H21.1378C20.7131 19.7184 20.2988 19.8496 19.9517 20.0935C19.6046 20.3374 19.3414 20.6821 19.1982 21.0805L11.7837 41.8064C11.6731 42.1158 11.6386 42.4471 11.6831 42.7725C11.7277 43.0979 11.85 43.4079 12.0397 43.6764C12.2295 43.9449 12.4812 44.1641 12.7737 44.3156C13.0661 44.4671 13.3908 44.5464 13.7204 44.5469L78.1071 44.6607H78.11C78.4507 44.6607 78.7862 44.5764 79.0862 44.4155C79.3862 44.2545 79.6414 44.0219 79.829 43.7385C80.0166 43.455 80.1306 43.1297 80.1609 42.7915C80.1912 42.4534 80.1368 42.113 80.0026 41.8009L79.8904 41.8488L80.0026 41.8009L71.0385 20.9612C70.8801 20.592 70.6162 20.2773 70.2797 20.0562C69.9432 19.8351 69.549 19.7175 69.1459 19.7178Z" fill="#02457A"/>
<path d="M80.1693 42.2515C80.1691 42.5294 80.1124 42.8044 80.0026 43.0599L71.0391 59.1017C70.8795 59.4701 70.6152 59.784 70.2789 60.0047C69.9425 60.2254 69.5487 60.3432 69.146 60.3438H21.1386C20.7137 60.3434 20.2992 60.2123 19.9518 59.9686C19.6044 59.7248 19.3409 59.3802 19.1973 58.9817L11.7842 43.0543C11.6934 42.8006 11.6536 42.5315 11.6671 42.2624C11.6807 41.9933 11.7474 41.7296 11.8633 41.4862C11.9793 41.2428 12.1422 41.0245 12.3429 40.8439C12.5435 40.6633 12.7779 40.5239 13.0327 40.4336C13.2531 40.3543 13.4856 40.3137 13.7199 40.3136L21.585 40.2989L24.7951 40.2933L67.0361 40.2195L70.2481 40.214L78.1076 40.1992H78.1095C78.6558 40.1993 79.1796 40.4156 79.5659 40.8004C79.9522 41.1853 80.1692 41.7072 80.1693 42.2515Z" fill="#02457A"/>
<path d="M18.6149 71.5459C19.5669 71.5459 32.6398 72.3419 32.6398 73.2904C32.6398 74.2389 19.5669 74.9808 18.6149 74.9808C18.1578 74.9808 17.7193 74.7998 17.3961 74.4777C17.0728 74.1557 16.8912 73.7188 16.8912 73.2633C16.8912 72.8078 17.0728 72.371 17.3961 72.0489C17.7193 71.7268 18.1578 71.5459 18.6149 71.5459Z" fill="#02457A"/>
<path d="M66.1563 7.10938H25.6768C24.592 7.11062 23.552 7.54055 22.7849 8.30485C22.0178 9.06914 21.5863 10.1054 21.585 11.1863V60.3434H69.146C69.5365 60.3447 69.9191 60.2338 70.2481 60.0242V11.1863C70.2469 10.1054 69.8154 9.06915 69.0483 8.30485C68.2812 7.54056 67.2411 7.11063 66.1563 7.10938Z" fill="#E6E6E6"/>
<path d="M50.7058 10.415H28.5221C27.5342 10.416 26.5871 10.8073 25.8884 11.5031C25.1898 12.1988 24.7966 13.1423 24.7951 14.1265V60.3437H67.0361V26.6857C67.0311 22.372 65.309 18.2364 62.2476 15.1861C59.1861 12.1358 55.0353 10.42 50.7058 10.415Z" fill="white"/>
<path d="M59.8398 56.2383H31.9915C31.7508 56.2383 31.5199 56.3336 31.3497 56.5032C31.1795 56.6728 31.0839 56.9028 31.0839 57.1426C31.0839 57.3825 31.1795 57.6125 31.3497 57.7821C31.5199 57.9517 31.7508 58.047 31.9915 58.047H59.8398C60.0805 58.047 60.3113 57.9517 60.4816 57.7821C60.6518 57.6125 60.7474 57.3825 60.7474 57.1426C60.7474 56.9028 60.6518 56.6728 60.4816 56.5032C60.3113 56.3336 60.0805 56.2383 59.8398 56.2383Z" fill="#E4E4E4"/>
<path d="M59.8398 52.6621H31.9915C31.7505 52.6621 31.5194 52.7575 31.349 52.9273C31.1787 53.097 31.0829 53.3273 31.0829 53.5674C31.0829 53.8075 31.1787 54.0377 31.349 54.2075C31.5194 54.3773 31.7505 54.4726 31.9915 54.4726H59.8398C60.0807 54.4726 60.3118 54.3773 60.4822 54.2075C60.6526 54.0377 60.7483 53.8075 60.7483 53.5674C60.7483 53.3273 60.6526 53.097 60.4822 52.9273C60.3118 52.7575 60.0807 52.6621 59.8398 52.6621Z" fill="#E4E4E4"/>
<path d="M44.0633 49.0869H31.9915C31.7508 49.0869 31.5199 49.1822 31.3497 49.3518C31.1795 49.5214 31.0839 49.7514 31.0839 49.9912C31.0839 50.2311 31.1795 50.4611 31.3497 50.6307C31.5199 50.8003 31.7508 50.8956 31.9915 50.8956H44.0633C44.304 50.8956 44.5349 50.8003 44.7051 50.6307C44.8753 50.4611 44.9709 50.2311 44.9709 49.9912C44.9709 49.7514 44.8753 49.5214 44.7051 49.3518C44.5349 49.1822 44.304 49.0869 44.0633 49.0869Z" fill="#E4E4E4"/>
<path d="M59.8398 41.5977H31.9915C31.7505 41.5977 31.5194 41.693 31.349 41.8628C31.1787 42.0326 31.0829 42.2628 31.0829 42.5029C31.0829 42.743 31.1787 42.9733 31.349 43.143C31.5194 43.3128 31.7505 43.4082 31.9915 43.4082H59.8398C60.0807 43.4082 60.3118 43.3128 60.4822 43.143C60.6526 42.9733 60.7483 42.743 60.7483 42.5029C60.7483 42.2628 60.6526 42.0326 60.4822 41.8628C60.3118 41.693 60.0807 41.5977 59.8398 41.5977Z" fill="#E4E4E4"/>
<path d="M59.8398 38.0225H31.9915C31.7508 38.0225 31.5199 38.1177 31.3497 38.2873C31.1795 38.4569 31.0839 38.687 31.0839 38.9268C31.0839 39.1666 31.1795 39.3967 31.3497 39.5663C31.5199 39.7359 31.7508 39.8311 31.9915 39.8311H59.8398C60.0805 39.8311 60.3113 39.7359 60.4816 39.5663C60.6518 39.3967 60.7474 39.1666 60.7474 38.9268C60.7474 38.687 60.6518 38.4569 60.4816 38.2873C60.3113 38.1177 60.0805 38.0225 59.8398 38.0225Z" fill="#E4E4E4"/>
<path d="M44.0633 34.4463H31.9915C31.7505 34.4463 31.5194 34.5417 31.349 34.7114C31.1787 34.8812 31.0829 35.1115 31.0829 35.3515C31.0829 35.5916 31.1787 35.8219 31.349 35.9917C31.5194 36.1614 31.7505 36.2568 31.9915 36.2568H44.0633C44.3043 36.2568 44.5354 36.1614 44.7058 35.9917C44.8761 35.8219 44.9719 35.5916 44.9719 35.3515C44.9719 35.1115 44.8761 34.8812 44.7058 34.7114C44.5354 34.5417 44.3043 34.4463 44.0633 34.4463Z" fill="#E4E4E4"/>
<path d="M59.8398 26.957H31.9915C31.7505 26.957 31.5194 27.0524 31.349 27.2222C31.1787 27.3919 31.0829 27.6222 31.0829 27.8623C31.0829 28.1024 31.1787 28.3326 31.349 28.5024C31.5194 28.6722 31.7505 28.7676 31.9915 28.7676H59.8398C60.0807 28.7676 60.3118 28.6722 60.4822 28.5024C60.6526 28.3326 60.7483 28.1024 60.7483 27.8623C60.7483 27.6222 60.6526 27.3919 60.4822 27.2222C60.3118 27.0524 60.0807 26.957 59.8398 26.957Z" fill="#02457A"/>
<path d="M59.8398 23.3818H31.9915C31.7505 23.3818 31.5194 23.4772 31.349 23.647C31.1787 23.8168 31.0829 24.047 31.0829 24.2871C31.0829 24.5272 31.1787 24.7574 31.349 24.9272C31.5194 25.097 31.7505 25.1924 31.9915 25.1924H59.8398C60.0807 25.1924 60.3118 25.097 60.4822 24.9272C60.6526 24.7574 60.7483 24.5272 60.7483 24.2871C60.7483 24.047 60.6526 23.8168 60.4822 23.647C60.3118 23.4772 60.0807 23.3818 59.8398 23.3818Z" fill="#02457A"/>
<path d="M44.0633 19.8047H31.9915C31.7505 19.8047 31.5194 19.9001 31.349 20.0698C31.1787 20.2396 31.0829 20.4699 31.0829 20.71C31.0829 20.95 31.1787 21.1803 31.349 21.3501C31.5194 21.5198 31.7505 21.6152 31.9915 21.6152H44.0633C44.3043 21.6152 44.5354 21.5198 44.7058 21.3501C44.8761 21.1803 44.9719 20.95 44.9719 20.71C44.9719 20.4699 44.8761 20.2396 44.7058 20.0698C44.5354 19.9001 44.3043 19.8047 44.0633 19.8047Z" fill="#02457A"/>
<path d="M68.7305 14.0865C72.6347 14.0865 75.7996 10.9332 75.7996 7.04328C75.7996 3.15338 72.6347 0 68.7305 0C64.8264 0 61.6614 3.15338 61.6614 7.04328C61.6614 10.9332 64.8264 14.0865 68.7305 14.0865Z" fill="#FCA34D"/>
<path d="M67.7661 10.7094C67.6441 10.7094 67.5237 10.6811 67.4145 10.6267C67.3053 10.5723 67.2103 10.4933 67.1371 10.396L65.2086 7.83394C65.1463 7.75166 65.1009 7.65794 65.075 7.55815C65.0491 7.45836 65.0433 7.35446 65.0578 7.25241C65.0723 7.15036 65.1068 7.05217 65.1595 6.96345C65.2121 6.87473 65.2818 6.79723 65.3646 6.73539C65.4473 6.67356 65.5415 6.6286 65.6417 6.60309C65.742 6.57759 65.8463 6.57203 65.9486 6.58675C66.051 6.60147 66.1495 6.63617 66.2384 6.68887C66.3273 6.74156 66.4049 6.81122 66.4667 6.89384L67.7284 8.56988L70.969 3.72681C71.0847 3.55392 71.2646 3.4339 71.4691 3.39315C71.6736 3.3524 71.886 3.39426 72.0595 3.50952C72.233 3.62478 72.3535 3.804 72.3944 4.00776C72.4353 4.21152 72.3933 4.42312 72.2776 4.59601L68.4205 10.3606C68.3507 10.4648 68.2569 10.5509 68.1468 10.6115C68.0368 10.6722 67.9137 10.7057 67.788 10.7092C67.7807 10.7093 67.7734 10.7094 67.7661 10.7094Z" fill="white"/>
</g>
<defs>
<clipPath id="clip0_1_236">
<rect width="125" height="109" fill="white"/>
</clipPath>
</defs>
</svg>
