<svg width="30" height="36" viewBox="0 0 30 36" fill="none" xmlns="http://www.w3.org/2000/svg">
<path d="M17.143 5.625C17.143 4.38047 16.1854 3.375 15.0001 3.375C13.8148 3.375 12.8572 4.38047 12.8572 5.625V15.75H3.21439C2.02912 15.75 1.07153 16.7555 1.07153 18C1.07153 19.2445 2.02912 20.25 3.21439 20.25H12.8572V30.375C12.8572 31.6195 13.8148 32.625 15.0001 32.625C16.1854 32.625 17.143 31.6195 17.143 30.375V20.25H26.7858C27.9711 20.25 28.9287 19.2445 28.9287 18C28.9287 16.7555 27.9711 15.75 26.7858 15.75H17.143V5.625Z" fill="#FF9228"/>
</svg>
