<svg width="335" height="118" viewBox="0 0 335 118" fill="none" xmlns="http://www.w3.org/2000/svg">
<path d="M0.548379 102.671C0.30769 101.665 0.143017 100.629 0.0607727 99.5707L0.310022 99.5514C0.270257 99.0395 0.25 98.5221 0.25 98V96.5H0V93.5H0.25V90.5H0V87.5H0.25V84.5H0V81.5H0.25V78.5H0V75.5H0.25V72.5H0V69.5H0.25V66.5H0V63.5H0.25V60.5H0V57.5H0.25V54.5H0V51.5H0.25V48.5H0V45.5H0.25V42.5H0V39.5H0.25V36.5H0V33.5H0.25V30.5H0V27.5H0.25V24.5H0V21.5H0.25V20C0.25 19.4778 0.270257 18.9605 0.310022 18.4486L0.0607727 18.4293C0.143017 17.3706 0.30769 16.3351 0.548379 15.3291L0.791516 15.3872C1.03439 14.3721 1.35565 13.3875 1.74854 12.44L1.51761 12.3442C1.92107 11.3713 2.39912 10.4371 2.94462 9.54881L3.15766 9.67963C3.70038 8.79584 4.31074 7.95801 4.98154 7.17334L4.79151 7.01089C5.4723 6.21454 6.21454 5.4723 7.01089 4.79151L7.17334 4.98154C7.95801 4.31074 8.79584 3.70038 9.67963 3.15766L9.54881 2.94462C10.4371 2.39912 11.3713 1.92107 12.3442 1.51761L12.44 1.74854C13.3875 1.35565 14.3721 1.03439 15.3872 0.791517L15.3291 0.548379C16.3351 0.30769 17.3706 0.143018 18.4293 0.0607729L18.4486 0.310022C18.9605 0.270257 19.4778 0.25 20 0.25H21.5052V0H24.5154V0.25H27.5255V0H30.5357V0.25H33.5459V0H36.5561V0.25H39.5663V0H42.5765V0.25H45.5867V0H48.5969V0.25H51.6071V0H54.6173V0.25H57.6275V0H60.6377V0.25H63.6479V0H66.6581V0.25H69.6683V0H72.6785V0.25H75.6887V0H78.6989V0.25H81.7091V0H84.7193V0.25H87.7295V0H90.7397V0.25H93.7499V0H96.7602V0.25H99.7704V0H102.781V0.25H105.791V0H108.801V0.25H111.811V0H114.821V0.25H117.832V0H120.842V0.25H123.852V0H126.862V0.25H129.872V0H132.883V0.25H135.893V0H138.903V0.25H141.913V0H144.923V0.25H147.934V0H150.944V0.25H153.954V0H156.964V0.25H159.975V0H162.985V0.25H165.995V0H169.005V0.25H172.015V0H175.026V0.25H178.036V0H181.046V0.25H184.056V0H187.066V0.25H190.077V0H193.087V0.25H196.097V0H199.107V0.25H202.117V0H205.128V0.25H208.138V0H211.148V0.25H214.158V0H217.168V0.25H220.179V0H223.189V0.25H226.199V0H229.209V0.25H232.219V0H235.23V0.25H238.24V0H241.25V0.25H244.26V0H247.27V0.25H250.281V0H253.291V0.25H256.301V0H259.311V0.25H262.321V0H265.332V0.25H268.342V0H271.352V0.25H274.362V0H277.372V0.25H280.383V0H283.393V0.25H286.403V0H289.413V0.25H292.423V0H295.434V0.25H298.444V0H301.454V0.25H304.464V0H307.474V0.25H310.485V0H313.495V0.25H315C315.522 0.25 316.04 0.270257 316.551 0.310022L316.571 0.0607722C317.629 0.143017 318.665 0.30769 319.671 0.54838L319.613 0.791517C320.628 1.03439 321.613 1.35565 322.56 1.74854L322.656 1.51761C323.629 1.92107 324.563 2.39912 325.451 2.94462L325.32 3.15766C326.204 3.70038 327.042 4.31074 327.827 4.98154L327.989 4.79151C328.785 5.4723 329.528 6.21454 330.208 7.01089L330.018 7.17334C330.689 7.95801 331.3 8.79584 331.842 9.67963L332.055 9.54881C332.601 10.4371 333.079 11.3713 333.482 12.3442L333.251 12.44C333.644 13.3875 333.966 14.3721 334.208 15.3872L334.452 15.3291C334.692 16.3351 334.857 17.3706 334.939 18.4293L334.69 18.4486C334.73 18.9605 334.75 19.4778 334.75 20V21.5H335V24.5H334.75V27.5H335V30.5H334.75V33.5H335V36.5H334.75V39.5H335V42.5H334.75V45.5H335V48.5H334.75V51.5H335V54.5H334.75V57.5H335V60.5H334.75V63.5H335V66.5H334.75V69.5H335V72.5H334.75V75.5H335V78.5H334.75V81.5H335V84.5H334.75V87.5H335V90.5H334.75V93.5H335V96.5H334.75V98C334.75 98.5221 334.73 99.0395 334.69 99.5514L334.939 99.5707C334.857 100.629 334.692 101.665 334.452 102.671L334.208 102.613C333.966 103.628 333.644 104.613 333.251 105.56L333.482 105.656C333.079 106.629 332.601 107.563 332.055 108.451L331.842 108.32C331.3 109.204 330.689 110.042 330.018 110.827L330.208 110.989C329.528 111.785 328.785 112.528 327.989 113.208L327.827 113.018C327.042 113.689 326.204 114.3 325.32 114.842L325.451 115.055C324.563 115.601 323.629 116.079 322.656 116.482L322.56 116.251C321.613 116.644 320.628 116.966 319.613 117.208L319.671 117.452C318.665 117.692 317.629 117.857 316.571 117.939L316.551 117.69C316.04 117.73 315.522 117.75 315 117.75H313.495V118H310.485V117.75H307.474V118H304.464V117.75H301.454V118H298.444V117.75H295.434V118H292.423V117.75H289.413V118H286.403V117.75H283.393V118H280.383V117.75H277.373V118H274.362V117.75H271.352V118H268.342V117.75H265.332V118H262.322V117.75H259.311V118H256.301V117.75H253.291V118H250.281V117.75H247.27V118H244.26V117.75H241.25V118H238.24V117.75H235.23V118H232.219V117.75H229.209V118H226.199V117.75H223.189V118H220.179V117.75H217.168V118H214.158V117.75H211.148V118H208.138V117.75H205.128V118H202.117V117.75H199.107V118H196.097V117.75H193.087V118H190.077V117.75H187.066V118H184.056V117.75H181.046V118H178.036V117.75H175.025V118H172.015V117.75H169.005V118H165.995V117.75H162.985V118H159.974V117.75H156.964V118H153.954V117.75H150.944V118H147.934V117.75H144.923V118H141.913V117.75H138.903V118H135.893V117.75H132.883V118H129.872V117.75H126.862V118H123.852V117.75H120.842V118H117.832V117.75H114.821V118H111.811V117.75H108.801V118H105.791V117.75H102.781V118H99.7704V117.75H96.7602V118H93.75V117.75H90.7398V118H87.7296V117.75H84.7194V118H81.7092V117.75H78.699V118H75.6888V117.75H72.6786V118H69.6684V117.75H66.6582V118H63.648V117.75H60.6378V118H57.6276V117.75H54.6174V118H51.6071V117.75H48.5969V118H45.5867V117.75H42.5765V118H39.5663V117.75H36.5561V118H33.5459V117.75H30.5357V118H27.5255V117.75H24.5153V118H21.5051V117.75H20C19.4779 117.75 18.9605 117.73 18.4486 117.69L18.4293 117.939C17.3706 117.857 16.3351 117.692 15.3291 117.452L15.3873 117.208C14.3721 116.966 13.3875 116.644 12.44 116.251L12.3442 116.482C11.3713 116.079 10.4371 115.601 9.54881 115.055L9.67963 114.842C8.79584 114.3 7.95801 113.689 7.17334 113.018L7.01089 113.208C6.21454 112.528 5.4723 111.785 4.79151 110.989L4.98154 110.827C4.31074 110.042 3.70038 109.204 3.15766 108.32L2.94462 108.451C2.39912 107.563 1.92107 106.629 1.51761 105.656L1.74854 105.56C1.35565 104.613 1.03439 103.628 0.791517 102.613L0.548379 102.671Z" fill="#D4E7ED" fill-opacity="0.7" stroke="#D4E7ED" stroke-width="0.5" stroke-dasharray="3 3"/>
</svg>
