<svg width="194" height="194" viewBox="0 0 194 194" fill="none" xmlns="http://www.w3.org/2000/svg">
<g filter="url(#filter0_d_1_602)">
<path d="M72 67C72 58.7157 78.7157 52 87 52H107C115.284 52 122 58.7157 122 67V87C122 95.2843 115.284 102 107 102H87C78.7157 102 72 95.2843 72 87V67Z" fill="white"/>
</g>
<path d="M97.3814 82.6292L97 82.404L96.6186 82.6292L90.1271 86.4632C89.9605 86.5617 89.75 86.4415 89.75 86.248V70C89.75 68.7574 90.7574 67.75 92 67.75H102C103.243 67.75 104.25 68.7574 104.25 70V86.248C104.25 86.4415 104.04 86.5617 103.873 86.4632L97.3814 82.6292Z" stroke="#FAA34F" stroke-width="1.5"/>
<defs>
<filter id="filter0_d_1_602" x="0" y="0" width="194" height="194" filterUnits="userSpaceOnUse" color-interpolation-filters="sRGB">
<feFlood flood-opacity="0" result="BackgroundImageFix"/>
<feColorMatrix in="SourceAlpha" type="matrix" values="0 0 0 0 0 0 0 0 0 0 0 0 0 0 0 0 0 0 127 0" result="hardAlpha"/>
<feOffset dy="20"/>
<feGaussianBlur stdDeviation="36"/>
<feComposite in2="hardAlpha" operator="out"/>
<feColorMatrix type="matrix" values="0 0 0 0 0.673698 0 0 0 0 0.782526 0 0 0 0 0.829167 0 0 0 0.4 0"/>
<feBlend mode="normal" in2="BackgroundImageFix" result="effect1_dropShadow_1_602"/>
<feBlend mode="normal" in="SourceGraphic" in2="effect1_dropShadow_1_602" result="shape"/>
</filter>
</defs>
</svg>
