<svg width="130" height="12" viewBox="0 0 130 12" fill="none" xmlns="http://www.w3.org/2000/svg">
<path d="M126.987 9.14381C126.275 9.14381 125.683 8.96381 125.211 8.60381C124.739 8.24381 124.463 7.75581 124.383 7.13981H125.415C125.479 7.45181 125.643 7.72381 125.907 7.95581C126.179 8.17981 126.543 8.29181 126.999 8.29181C127.423 8.29181 127.735 8.20381 127.935 8.02781C128.135 7.84381 128.235 7.62781 128.235 7.37981C128.235 7.01981 128.103 6.77981 127.839 6.65981C127.583 6.53981 127.219 6.43181 126.747 6.33581C126.427 6.27181 126.107 6.17981 125.787 6.05981C125.467 5.93981 125.199 5.77181 124.983 5.55581C124.767 5.33181 124.659 5.03981 124.659 4.67981C124.659 4.15981 124.851 3.73581 125.235 3.40781C125.627 3.07181 126.155 2.90381 126.819 2.90381C127.451 2.90381 127.967 3.06381 128.367 3.38381C128.775 3.69581 129.011 4.14381 129.075 4.72781H128.079C128.039 4.42381 127.907 4.18781 127.683 4.01981C127.467 3.84381 127.175 3.75581 126.807 3.75581C126.447 3.75581 126.167 3.83181 125.967 3.98381C125.775 4.13581 125.679 4.33581 125.679 4.58381C125.679 4.82381 125.803 5.01181 126.051 5.14781C126.307 5.28381 126.651 5.39981 127.083 5.49581C127.451 5.57581 127.799 5.67581 128.127 5.79581C128.463 5.90781 128.735 6.07981 128.943 6.31181C129.159 6.53581 129.267 6.86381 129.267 7.29581C129.275 7.83181 129.071 8.27581 128.655 8.62781C128.247 8.97181 127.691 9.14381 126.987 9.14381Z" fill="#5F778B"/>
<path d="M120.551 9.14381C119.983 9.14381 119.479 9.01581 119.039 8.75981C118.599 8.49581 118.251 8.13181 117.995 7.66781C117.747 7.20381 117.623 6.65581 117.623 6.02381C117.623 5.39981 117.747 4.85581 117.995 4.39181C118.243 3.91981 118.587 3.55581 119.027 3.29981C119.475 3.03581 119.991 2.90381 120.575 2.90381C121.151 2.90381 121.647 3.03581 122.063 3.29981C122.487 3.55581 122.811 3.89581 123.035 4.31981C123.259 4.74381 123.371 5.19981 123.371 5.68781C123.371 5.77581 123.367 5.86381 123.359 5.95181C123.359 6.03981 123.359 6.13981 123.359 6.25181H118.619C118.643 6.70781 118.747 7.08781 118.931 7.39181C119.123 7.68781 119.359 7.91181 119.639 8.06381C119.927 8.21581 120.231 8.29181 120.551 8.29181C120.967 8.29181 121.315 8.19581 121.595 8.00381C121.875 7.81181 122.079 7.55181 122.207 7.22381H123.203C123.043 7.77581 122.735 8.23581 122.279 8.60381C121.831 8.96381 121.255 9.14381 120.551 9.14381ZM120.551 3.75581C120.071 3.75581 119.643 3.90381 119.267 4.19981C118.899 4.48781 118.687 4.91181 118.631 5.47181H122.375C122.351 4.93581 122.167 4.51581 121.823 4.21181C121.479 3.90781 121.055 3.75581 120.551 3.75581Z" fill="#5F778B"/>
<path d="M113.719 9.14381C113.151 9.14381 112.647 9.01581 112.207 8.75981C111.767 8.49581 111.419 8.13181 111.163 7.66781C110.915 7.20381 110.791 6.65581 110.791 6.02381C110.791 5.39981 110.915 4.85581 111.163 4.39181C111.411 3.91981 111.755 3.55581 112.195 3.29981C112.643 3.03581 113.159 2.90381 113.743 2.90381C114.319 2.90381 114.815 3.03581 115.231 3.29981C115.655 3.55581 115.979 3.89581 116.203 4.31981C116.427 4.74381 116.539 5.19981 116.539 5.68781C116.539 5.77581 116.535 5.86381 116.527 5.95181C116.527 6.03981 116.527 6.13981 116.527 6.25181H111.787C111.811 6.70781 111.915 7.08781 112.099 7.39181C112.291 7.68781 112.527 7.91181 112.807 8.06381C113.095 8.21581 113.399 8.29181 113.719 8.29181C114.135 8.29181 114.483 8.19581 114.763 8.00381C115.043 7.81181 115.247 7.55181 115.375 7.22381H116.371C116.211 7.77581 115.903 8.23581 115.447 8.60381C114.999 8.96381 114.423 9.14381 113.719 9.14381ZM113.719 3.75581C113.239 3.75581 112.811 3.90381 112.435 4.19981C112.067 4.48781 111.855 4.91181 111.799 5.47181H115.543C115.519 4.93581 115.335 4.51581 114.991 4.21181C114.647 3.90781 114.223 3.75581 113.719 3.75581Z" fill="#5F778B"/>
<path d="M105.585 11.6399L107.061 8.42385H106.713L104.349 3.04785H105.441L107.409 7.67985L109.497 3.04785H110.541L106.641 11.6399H105.585Z" fill="#5F778B"/>
<path d="M101.028 9.14381C100.468 9.14381 99.9643 9.01581 99.5163 8.75981C99.0683 8.50381 98.7123 8.14381 98.4483 7.67981C98.1923 7.20781 98.0643 6.65581 98.0643 6.02381C98.0643 5.39181 98.1963 4.84381 98.4603 4.37981C98.7243 3.90781 99.0803 3.54381 99.5283 3.28781C99.9843 3.03181 100.492 2.90381 101.052 2.90381C101.612 2.90381 102.116 3.03181 102.564 3.28781C103.012 3.54381 103.364 3.90781 103.62 4.37981C103.884 4.84381 104.016 5.39181 104.016 6.02381C104.016 6.65581 103.884 7.20781 103.62 7.67981C103.356 8.14381 102.996 8.50381 102.54 8.75981C102.092 9.01581 101.588 9.14381 101.028 9.14381ZM101.028 8.27981C101.372 8.27981 101.692 8.19581 101.988 8.02781C102.284 7.85981 102.524 7.60781 102.708 7.27181C102.892 6.93581 102.984 6.51981 102.984 6.02381C102.984 5.52781 102.892 5.11181 102.708 4.77581C102.532 4.43981 102.296 4.18781 102 4.01981C101.704 3.85181 101.388 3.76781 101.052 3.76781C100.708 3.76781 100.388 3.85181 100.092 4.01981C99.7963 4.18781 99.5563 4.43981 99.3723 4.77581C99.1883 5.11181 99.0963 5.52781 99.0963 6.02381C99.0963 6.51981 99.1883 6.93581 99.3723 7.27181C99.5563 7.60781 99.7923 7.85981 100.08 8.02781C100.376 8.19581 100.692 8.27981 101.028 8.27981Z" fill="#5F778B"/>
<path d="M95.6561 8.99986V0.359863H96.6641V8.99986H95.6561Z" fill="#5F778B"/>
<path d="M88.121 11.6398V3.04781H89.033L89.129 4.03181C89.321 3.74381 89.593 3.48381 89.945 3.25181C90.305 3.01981 90.761 2.90381 91.313 2.90381C91.905 2.90381 92.421 3.03981 92.861 3.31181C93.301 3.58381 93.641 3.95581 93.881 4.42781C94.129 4.89981 94.253 5.43581 94.253 6.03581C94.253 6.63581 94.129 7.17181 93.881 7.64381C93.641 8.10781 93.297 8.47581 92.849 8.74781C92.409 9.01181 91.893 9.14381 91.301 9.14381C90.813 9.14381 90.377 9.04381 89.993 8.84381C89.617 8.64381 89.329 8.36381 89.129 8.00381V11.6398H88.121ZM91.193 8.26781C91.593 8.26781 91.945 8.17581 92.249 7.99181C92.553 7.79981 92.793 7.53581 92.969 7.19981C93.145 6.86381 93.233 6.47181 93.233 6.02381C93.233 5.57581 93.145 5.18381 92.969 4.84781C92.793 4.51181 92.553 4.25181 92.249 4.06781C91.945 3.87581 91.593 3.77981 91.193 3.77981C90.793 3.77981 90.441 3.87581 90.137 4.06781C89.833 4.25181 89.593 4.51181 89.417 4.84781C89.241 5.18381 89.153 5.57581 89.153 6.02381C89.153 6.47181 89.241 6.86381 89.417 7.19981C89.593 7.53581 89.833 7.79981 90.137 7.99181C90.441 8.17581 90.793 8.26781 91.193 8.26781Z" fill="#5F778B"/>
<path d="M77.3866 8.99981V3.04781H78.2986L78.3706 3.91181C78.5626 3.59181 78.8186 3.34381 79.1386 3.16781C79.4586 2.99181 79.8186 2.90381 80.2186 2.90381C80.6906 2.90381 81.0946 2.99981 81.4306 3.19181C81.7746 3.38381 82.0386 3.67581 82.2226 4.06781C82.4306 3.70781 82.7146 3.42381 83.0746 3.21581C83.4426 3.00781 83.8386 2.90381 84.2626 2.90381C84.9746 2.90381 85.5426 3.11981 85.9666 3.55181C86.3906 3.97581 86.6026 4.63181 86.6026 5.51981V8.99981H85.6066V5.62781C85.6066 5.01181 85.4826 4.54781 85.2346 4.23581C84.9866 3.92381 84.6306 3.76781 84.1666 3.76781C83.6866 3.76781 83.2866 3.95581 82.9666 4.33181C82.6546 4.69981 82.4986 5.22781 82.4986 5.91581V8.99981H81.4906V5.62781C81.4906 5.01181 81.3666 4.54781 81.1186 4.23581C80.8706 3.92381 80.5146 3.76781 80.0506 3.76781C79.5786 3.76781 79.1826 3.95581 78.8626 4.33181C78.5506 4.69981 78.3946 5.22781 78.3946 5.91581V8.99981H77.3866Z" fill="#5F778B"/>
<path d="M70.6732 9.0001V0.600098H75.8692V1.4281H71.6812V4.3561H75.5092V5.1721H71.6812V8.1721H75.8692V9.0001H70.6732Z" fill="#5F778B"/>
<path d="M62.453 9.14405C61.709 9.14405 61.065 8.96406 60.521 8.60406C59.985 8.23606 59.573 7.72806 59.285 7.08005C58.997 6.42405 58.853 5.66405 58.853 4.80005C58.853 3.93605 58.997 3.18005 59.285 2.53205C59.573 1.87605 59.985 1.36805 60.521 1.00805C61.065 0.640055 61.709 0.456055 62.453 0.456055C63.197 0.456055 63.837 0.640055 64.373 1.00805C64.909 1.36805 65.321 1.87605 65.609 2.53205C65.897 3.18005 66.041 3.93605 66.041 4.80005C66.041 5.66405 65.897 6.42405 65.609 7.08005C65.321 7.72806 64.909 8.23606 64.373 8.60406C63.837 8.96406 63.197 9.14405 62.453 9.14405ZM62.453 8.25605C62.941 8.25605 63.377 8.12005 63.761 7.84805C64.153 7.56805 64.457 7.17205 64.673 6.66005C64.897 6.14005 65.009 5.52005 65.009 4.80005C65.009 4.08005 64.897 3.46405 64.673 2.95205C64.457 2.44005 64.153 2.04805 63.761 1.77605C63.377 1.49605 62.941 1.35605 62.453 1.35605C61.957 1.35605 61.517 1.49605 61.133 1.77605C60.749 2.04805 60.445 2.44005 60.221 2.95205C59.997 3.46405 59.885 4.08005 59.885 4.80005C59.885 5.52005 59.997 6.14005 60.221 6.66005C60.445 7.17205 60.749 7.56805 61.133 7.84805C61.517 8.12005 61.957 8.25605 62.453 8.25605Z" fill="#5F778B"/>
<path d="M54.1327 9.14405C53.3887 9.14405 52.7447 8.96406 52.2007 8.60406C51.6647 8.23606 51.2527 7.72806 50.9647 7.08005C50.6767 6.42405 50.5327 5.66405 50.5327 4.80005C50.5327 3.93605 50.6767 3.18005 50.9647 2.53205C51.2527 1.87605 51.6647 1.36805 52.2007 1.00805C52.7447 0.640055 53.3887 0.456055 54.1327 0.456055C54.8767 0.456055 55.5167 0.640055 56.0527 1.00805C56.5887 1.36805 57.0007 1.87605 57.2887 2.53205C57.5767 3.18005 57.7207 3.93605 57.7207 4.80005C57.7207 5.66405 57.5767 6.42405 57.2887 7.08005C57.0007 7.72806 56.5887 8.23606 56.0527 8.60406C55.5167 8.96406 54.8767 9.14405 54.1327 9.14405ZM54.1327 8.25605C54.6207 8.25605 55.0567 8.12005 55.4407 7.84805C55.8327 7.56805 56.1367 7.17205 56.3527 6.66005C56.5767 6.14005 56.6887 5.52005 56.6887 4.80005C56.6887 4.08005 56.5767 3.46405 56.3527 2.95205C56.1367 2.44005 55.8327 2.04805 55.4407 1.77605C55.0567 1.49605 54.6207 1.35605 54.1327 1.35605C53.6367 1.35605 53.1967 1.49605 52.8127 1.77605C52.4287 2.04805 52.1247 2.44005 51.9007 2.95205C51.6767 3.46405 51.5647 4.08005 51.5647 4.80005C51.5647 5.52005 51.6767 6.14005 51.9007 6.66005C52.1247 7.17205 52.4287 7.56805 52.8127 7.84805C53.1967 8.12005 53.6367 8.25605 54.1327 8.25605Z" fill="#5F778B"/>
<path d="M45.8124 9.14405C45.0684 9.14405 44.4244 8.96406 43.8804 8.60406C43.3444 8.23606 42.9324 7.72806 42.6444 7.08005C42.3564 6.42405 42.2124 5.66405 42.2124 4.80005C42.2124 3.93605 42.3564 3.18005 42.6444 2.53205C42.9324 1.87605 43.3444 1.36805 43.8804 1.00805C44.4244 0.640055 45.0684 0.456055 45.8124 0.456055C46.5564 0.456055 47.1964 0.640055 47.7324 1.00805C48.2684 1.36805 48.6804 1.87605 48.9684 2.53205C49.2564 3.18005 49.4004 3.93605 49.4004 4.80005C49.4004 5.66405 49.2564 6.42405 48.9684 7.08005C48.6804 7.72806 48.2684 8.23606 47.7324 8.60406C47.1964 8.96406 46.5564 9.14405 45.8124 9.14405ZM45.8124 8.25605C46.3004 8.25605 46.7364 8.12005 47.1204 7.84805C47.5124 7.56805 47.8164 7.17205 48.0324 6.66005C48.2564 6.14005 48.3684 5.52005 48.3684 4.80005C48.3684 4.08005 48.2564 3.46405 48.0324 2.95205C47.8164 2.44005 47.5124 2.04805 47.1204 1.77605C46.7364 1.49605 46.3004 1.35605 45.8124 1.35605C45.3164 1.35605 44.8764 1.49605 44.4924 1.77605C44.1084 2.04805 43.8044 2.44005 43.5804 2.95205C43.3564 3.46405 43.2444 4.08005 43.2444 4.80005C43.2444 5.52005 43.3564 6.14005 43.5804 6.66005C43.8044 7.17205 44.1084 7.56805 44.4924 7.84805C44.8764 8.12005 45.3164 8.25605 45.8124 8.25605Z" fill="#5F778B"/>
<path d="M39.5396 10.4279L40.2356 7.77588H41.2796L40.2356 10.4279H39.5396Z" fill="#5F778B"/>
<path d="M35.912 9.1441C35.336 9.1441 34.836 9.0401 34.412 8.8321C33.988 8.6241 33.648 8.3401 33.392 7.9801C33.144 7.6121 32.992 7.1961 32.936 6.7321H33.92C34.016 7.1961 34.24 7.5721 34.592 7.8601C34.944 8.1401 35.388 8.2801 35.924 8.2801C36.324 8.2801 36.668 8.1881 36.956 8.0041C37.244 7.8121 37.464 7.5561 37.616 7.2361C37.776 6.9161 37.856 6.5601 37.856 6.1681C37.856 5.5441 37.68 5.0401 37.328 4.6561C36.976 4.2721 36.52 4.0801 35.96 4.0801C35.496 4.0801 35.1 4.1841 34.772 4.3921C34.444 4.6001 34.204 4.8721 34.052 5.2081H33.092L33.812 0.600098H38.216V1.4761H34.592L34.1 4.0321C34.292 3.8001 34.556 3.6081 34.892 3.4561C35.236 3.3041 35.628 3.2281 36.068 3.2281C36.62 3.2281 37.1 3.3561 37.508 3.6121C37.924 3.8681 38.248 4.2161 38.48 4.6561C38.712 5.0961 38.828 5.5961 38.828 6.1561C38.828 6.6921 38.712 7.1881 38.48 7.6441C38.256 8.1001 37.924 8.4641 37.484 8.7361C37.052 9.0081 36.528 9.1441 35.912 9.1441Z" fill="#5F778B"/>
<path d="M26.7236 5.93989V5.08789H31.4756V5.93989H26.7236Z" fill="#5F778B"/>
<path d="M24.1105 9.0001V1.7281L22.7545 2.0281V1.3321L24.4465 0.600098H25.1305V9.0001H24.1105Z" fill="#5F778B"/>
<path d="M18.2382 9.14405C17.4942 9.14405 16.8502 8.96406 16.3062 8.60406C15.7702 8.23606 15.3582 7.72806 15.0702 7.08005C14.7822 6.42405 14.6382 5.66405 14.6382 4.80005C14.6382 3.93605 14.7822 3.18005 15.0702 2.53205C15.3582 1.87605 15.7702 1.36805 16.3062 1.00805C16.8502 0.640055 17.4942 0.456055 18.2382 0.456055C18.9822 0.456055 19.6222 0.640055 20.1582 1.00805C20.6942 1.36805 21.1062 1.87605 21.3942 2.53205C21.6822 3.18005 21.8262 3.93605 21.8262 4.80005C21.8262 5.66405 21.6822 6.42405 21.3942 7.08005C21.1062 7.72806 20.6942 8.23606 20.1582 8.60406C19.6222 8.96406 18.9822 9.14405 18.2382 9.14405ZM18.2382 8.25605C18.7262 8.25605 19.1622 8.12005 19.5462 7.84805C19.9382 7.56805 20.2422 7.17205 20.4582 6.66005C20.6822 6.14005 20.7942 5.52005 20.7942 4.80005C20.7942 4.08005 20.6822 3.46405 20.4582 2.95205C20.2422 2.44005 19.9382 2.04805 19.5462 1.77605C19.1622 1.49605 18.7262 1.35605 18.2382 1.35605C17.7422 1.35605 17.3022 1.49605 16.9182 1.77605C16.5342 2.04805 16.2302 2.44005 16.0062 2.95205C15.7822 3.46405 15.6702 4.08005 15.6702 4.80005C15.6702 5.52005 15.7822 6.14005 16.0062 6.66005C16.2302 7.17205 16.5342 7.56805 16.9182 7.84805C17.3022 8.12005 17.7422 8.25605 18.2382 8.25605Z" fill="#5F778B"/>
<path d="M9.91787 9.14405C9.17387 9.14405 8.52987 8.96406 7.98587 8.60406C7.44987 8.23606 7.03787 7.72806 6.74987 7.08005C6.46187 6.42405 6.31787 5.66405 6.31787 4.80005C6.31787 3.93605 6.46187 3.18005 6.74987 2.53205C7.03787 1.87605 7.44987 1.36805 7.98587 1.00805C8.52987 0.640055 9.17387 0.456055 9.91787 0.456055C10.6619 0.456055 11.3019 0.640055 11.8379 1.00805C12.3739 1.36805 12.7859 1.87605 13.0739 2.53205C13.3619 3.18005 13.5059 3.93605 13.5059 4.80005C13.5059 5.66405 13.3619 6.42405 13.0739 7.08005C12.7859 7.72806 12.3739 8.23606 11.8379 8.60406C11.3019 8.96406 10.6619 9.14405 9.91787 9.14405ZM9.91787 8.25605C10.4059 8.25605 10.8419 8.12005 11.2259 7.84805C11.6179 7.56805 11.9219 7.17205 12.1379 6.66005C12.3619 6.14005 12.4739 5.52005 12.4739 4.80005C12.4739 4.08005 12.3619 3.46405 12.1379 2.95205C11.9219 2.44005 11.6179 2.04805 11.2259 1.77605C10.8419 1.49605 10.4059 1.35605 9.91787 1.35605C9.42187 1.35605 8.98187 1.49605 8.59787 1.77605C8.21387 2.04805 7.90987 2.44005 7.68587 2.95205C7.46187 3.46405 7.34987 4.08005 7.34987 4.80005C7.34987 5.52005 7.46187 6.14005 7.68587 6.66005C7.90987 7.17205 8.21387 7.56805 8.59787 7.84805C8.98187 8.12005 9.42187 8.25605 9.91787 8.25605Z" fill="#5F778B"/>
<path d="M3.64508 10.4279L4.34108 7.77588H5.38508L4.34108 10.4279H3.64508Z" fill="#5F778B"/>
<path d="M1.71599 9.0001V1.7281L0.359985 2.0281V1.3321L2.05199 0.600098H2.73599V9.0001H1.71599Z" fill="#5F778B"/>
</svg>
